KRSPY-parametric-WideBlackMaxGrade-maxXOPQmaxYOPQminXTRA.ufo
<glyph name="comma" format="2">
  <advance width="422"/>
  <unicode hex="002C"/>
  <outline>
    <contour>
      <point x="169" y="-199" type="line"/>
      <point x="403" y="0" type="line"/>
      <point x="403" y="419" type="line"/>
      <point x="-315" y="419" type="line"/>
      <point x="-409" y="326" type="line"/>
      <point x="-409" y="0" type="line"/>
      <point x="51" y="0" type="line"/>
      <point x="51" y="-199" type="line"/>
    </contour>
  </outline>
</glyph>
<glyph name="period" format="2">
  <advance width="739"/>
  <unicode hex="002E"/>
  <outline>
    <contour>
      <point x="608" y="0" type="line" identifier="1m237t4hyw"/>
      <point x="704" y="113" type="line" identifier="v7N4yg5XNk"/>
      <point x="704" y="383" type="line"/>
      <point x="230" y="383" type="line" identifier="zfocDyDTCM"/>
      <point x="135" y="271" type="line"/>
      <point x="135" y="0" type="line" identifier="S4rO5KuHiL"/>
    </contour>
  </outline>
</glyph>
<glyph name="three" format="2">
  <advance width="1761"/>
  <unicode hex="0033"/>
  <outline>
    <contour>
      <point x="4" y="0" type="line" identifier="O9abUc1nmN"/>
      <point x="1743" y="0" type="line" identifier="kMJYMTfXCq"/>
      <point x="1743" y="907" type="line" identifier="su2XmdS8e8"/>
      <point x="1591" y="982" type="line" identifier="JQaOzDQqlF"/>
      <point x="1591" y="985" type="line"/>
      <point x="1705" y="1077" type="line" identifier="S91TzLL02W"/>
      <point x="1705" y="1600" type="line" identifier="xg8x2Ki40p"/>
      <point x="7" y="1600" type="line" identifier="pE1XSRiy68"/>
      <point x="7" y="882" type="line" identifier="5lNstGRcSF"/>
      <point x="820" y="882" type="line" identifier="AcE5xKDZfE"/>
      <point x="820" y="1160" type="line" identifier="7ogBYufWpl"/>
      <point x="892" y="1160" type="line" identifier="RHLvSX2Jv6"/>
      <point x="892" y="1059" type="line" identifier="YUjTrmoWd9"/>
      <point x="786" y="997" type="line"/>
      <point x="786" y="993" type="line" identifier="iic1IBkDqp"/>
      <point x="112" y="993" type="line" identifier="lRLJEhXMlO"/>
      <point x="112" y="553" type="line" identifier="8aKgEELrVU"/>
      <point x="930" y="553" type="line" identifier="Dm8zjmbhNr"/>
      <point x="930" y="440" type="line" identifier="xv9CFHiFgB"/>
      <point x="817" y="440" type="line" identifier="YajKQV3MHP"/>
      <point x="817" y="663" type="line" identifier="36SchVkwze"/>
      <point x="4" y="663" type="line" identifier="tVui9PiOjA"/>
    </contour>
  </outline>
</glyph>
<glyph name="four" format="2">
  <advance width="1843"/>
  <unicode hex="0034"/>
  <outline>
    <contour>
      <point x="912" y="0" type="line"/>
      <point x="1724" y="0" type="line"/>
      <point x="1724" y="564" type="line"/>
      <point x="1838" y="564" type="line"/>
      <point x="1838" y="1004" type="line"/>
      <point x="1724" y="1004" type="line"/>
      <point x="1724" y="1600" type="line"/>
      <point x="912" y="1600" type="line"/>
      <point x="912" y="1004" type="line"/>
      <point x="817" y="1004" type="line"/>
      <point x="817" y="1047" type="line"/>
      <point x="920" y="1680" type="line"/>
      <point x="126" y="1680" type="line"/>
      <point x="4" y="1046" type="line"/>
      <point x="4" y="564" type="line"/>
      <point x="912" y="564" type="line"/>
    </contour>
  </outline>
</glyph>
<glyph name="six" format="2">
  <advance width="1796"/>
  <unicode hex="0036"/>
  <outline>
    <contour>
      <point x="36" y="0" type="line" identifier="uiw6aBUf4P"/>
      <point x="1775" y="0" type="line" identifier="jtYkxiUX6G"/>
      <point x="1775" y="972" type="line" identifier="2G5L37c87I"/>
      <point x="848" y="972" type="line"/>
      <point x="848" y="964" type="line"/>
      <point x="886" y="1160" type="line"/>
      <point x="961" y="1160" type="line"/>
      <point x="961" y="868" type="line"/>
      <point x="1773" y="868" type="line" identifier="Wuidbv6mUe"/>
      <point x="1773" y="1600" type="line" identifier="oGvEEuxnYv"/>
      <point x="149" y="1600" type="line" identifier="xR3pEHbMJx"/>
      <point x="36" y="965" type="line" identifier="KnMArb0tv8"/>
    </contour>
    <contour>
      <point x="962" y="532" type="line"/>
      <point x="962" y="440" type="line"/>
      <point x="848" y="440" type="line"/>
      <point x="848" y="532" type="line"/>
    </contour>
  </outline>
</glyph>
<glyph name="seven" format="2">
  <advance width="1746"/>
  <unicode hex="0037"/>
  <outline>
    <contour>
      <point x="483" y="0" type="line"/>
      <point x="1295" y="0" type="line" identifier="PiPrv7Kcoy"/>
      <point x="1742" y="910" type="line" identifier="PkvwNC9Tx1"/>
      <point x="1742" y="1600" type="line" identifier="tgqM27bPOm"/>
      <point x="4" y="1600" type="line" identifier="36ml4xRICt"/>
      <point x="4" y="744" type="line" identifier="aaDZsh5Mah"/>
      <point x="817" y="744" type="line"/>
      <point x="817" y="1160" type="line"/>
      <point x="929" y="1160" type="line"/>
      <point x="929" y="1004" type="line"/>
    </contour>
  </outline>
</glyph>
<glyph name="B" format="2">
  <advance width="1796"/>
  <unicode hex="0042"/>
  <outline>
    <contour>
      <point x="38" y="0" type="line" identifier="hvY9r8RmLr"/>
      <point x="1777" y="0" type="line" identifier="9QFpw7nfq7"/>
      <point x="1777" y="570" type="line" identifier="543PerILpr"/>
      <point x="1642" y="795" type="line" identifier="zhomauHW30"/>
      <point x="1642" y="797" type="line" identifier="870ZhtaozS"/>
      <point x="1773" y="1026" type="line" identifier="eGKH52Jgnk"/>
      <point x="1773" y="1600" type="line" identifier="FaP204GrdB"/>
      <point x="38" y="1600" type="line" identifier="JEev70GAj6"/>
    </contour>
    <contour>
      <point x="850" y="1015" type="line" identifier="By7dfMihfe"/>
      <point x="850" y="1160" type="line" identifier="1p5hKrurVy"/>
      <point x="961" y="1160" type="line" identifier="Qby8aMtF2X"/>
      <point x="961" y="1083" type="line" identifier="9lW01gQyU2"/>
      <point x="921" y="1015" type="line" identifier="xpxyvIzPoc"/>
    </contour>
    <contour>
      <point x="850" y="440" type="line" identifier="jaMSiLrCua"/>
      <point x="850" y="575" type="line" identifier="XSrxNd2axx"/>
      <point x="921" y="575" type="line" identifier="VyYlzRh5nq"/>
      <point x="965" y="516" type="line" identifier="lsRGatjQja"/>
      <point x="965" y="440" type="line" identifier="xhlDJ3CjD5"/>
    </contour>
  </outline>
</glyph>
<glyph name="C" format="2">
  <advance width="1761"/>
  <unicode hex="0043"/>
  <outline>
    <contour>
      <point x="19" y="0" type="line" identifier="7lPhzTnk2Z"/>
      <point x="1751" y="0" type="line" identifier="qJVLZGnkwh"/>
      <point x="1751" y="695" type="line" identifier="nDnDHzAMXL"/>
      <point x="939" y="695" type="line" identifier="QX1V08aTu0"/>
      <point x="939" y="440" type="line" identifier="Y750RHTvDj"/>
      <point x="831" y="440" type="line" identifier="L2LsGnXiZ2"/>
      <point x="831" y="936" type="line" identifier="sUWsr03vF4"/>
      <point x="884" y="1160" type="line" identifier="dbOUe6OhxL"/>
      <point x="944" y="1160" type="line" identifier="5BjRbcud80"/>
      <point x="944" y="841" type="line" identifier="fNVDqwQo2o"/>
      <point x="1756" y="841" type="line" identifier="wLqQQx7QVN"/>
      <point x="1756" y="1600" type="line" identifier="9eJelv8BOw"/>
      <point x="167" y="1600" type="line" identifier="lfZev3ICaC"/>
      <point x="19" y="983" type="line" identifier="V1EWIdPahq"/>
    </contour>
  </outline>
</glyph>
<glyph name="M" format="2">
  <advance width="3021"/>
  <unicode hex="004D"/>
  <outline>
    <contour>
      <point x="849" y="102" type="line" identifier="0Dn4Xpf57M"/>
      <point x="802" y="1160" type="line"/>
      <point x="756" y="1160" type="line"/>
      <point x="756" y="0" type="line"/>
      <point x="38" y="0" type="line"/>
      <point x="38" y="1600" type="line"/>
      <point x="1474" y="1600" type="line"/>
      <point x="1495" y="505" type="line"/>
      <point x="1526" y="505" type="line" identifier="9aKZPM0HPh"/>
      <point x="1547" y="1600" type="line"/>
      <point x="2984" y="1600" type="line"/>
      <point x="2984" y="0" type="line"/>
      <point x="2265" y="0" type="line"/>
      <point x="2265" y="1160" type="line"/>
      <point x="2220" y="1160" type="line"/>
      <point x="2172" y="102" type="line" identifier="spdoeeCFft"/>
    </contour>
  </outline>
</glyph>
<glyph name="R" format="2">
  <advance width="1785"/>
  <unicode hex="0052"/>
  <outline>
    <contour>
      <point x="850" y="773" type="line"/>
      <point x="850" y="1160" type="line"/>
      <point x="961" y="1160" type="line"/>
      <point x="961" y="928" type="line"/>
      <point x="924" y="896" type="line"/>
    </contour>
    <contour>
      <point x="1766" y="0" type="line"/>
      <point x="1641" y="704" type="line"/>
      <point x="1773" y="831" type="line"/>
      <point x="1773" y="1600" type="line"/>
      <point x="38" y="1600" type="line"/>
      <point x="38" y="0" type="line"/>
      <point x="850" y="0" type="line"/>
      <point x="850" y="333" type="line"/>
      <point x="934" y="456" type="line"/>
      <point x="982" y="0" type="line"/>
    </contour>
  </outline>
</glyph>
<glyph name="S" format="2">
  <advance width="1699"/>
  <unicode hex="0053"/>
  <outline>
    <contour>
      <point x="21" y="0" type="line" identifier="09VlJ0BjUX"/>
      <point x="1681" y="0" type="line" identifier="EagWihqFM8"/>
      <point x="1681" y="1006" type="line" identifier="KfNuQA7eZe"/>
      <point x="827" y="1006" type="line" identifier="At364YZFEy"/>
      <point x="827" y="1048" type="line"/>
      <point x="863" y="1160" type="line"/>
      <point x="865" y="1160" type="line" identifier="3ZUkG35meB"/>
      <point x="865" y="1065" type="line" identifier="DTOJhFIl15"/>
      <point x="1678" y="1065" type="line" identifier="9KDcrfQ5Ui"/>
      <point x="1678" y="1600" type="line" identifier="SaF9ojRFrW"/>
      <point x="186" y="1600" type="line"/>
      <point x="24" y="1104" type="line"/>
      <point x="24" y="566" type="line" identifier="3sQ8t8BZ6b"/>
      <point x="867" y="566" type="line" identifier="yiV6OCBLHg"/>
      <point x="867" y="440" type="line" identifier="9kdl9SYsn8"/>
      <point x="834" y="440" type="line" identifier="yZDWuX8LLe"/>
      <point x="834" y="579" type="line" identifier="jYb9001DTm"/>
      <point x="21" y="579" type="line" identifier="ho4DrS0rdW"/>
    </contour>
  </outline>
</glyph>
<glyph name="W" format="2">
  <advance width="2662"/>
  <unicode hex="0057"/>
  <outline>
    <contour>
      <point x="850" y="1600" type="line" smooth="yes" identifier="12Pyby1xY2"/>
      <point x="38" y="1600" type="line" smooth="yes" identifier="5LJg4ajoG6"/>
      <point x="38" y="0" type="line" smooth="yes" identifier="ZqTZqAY3uY"/>
      <point x="1159" y="0" type="line" smooth="yes" identifier="rCeQLyjlsN"/>
      <point x="1236" y="145" type="line"/>
      <point x="1252" y="145" type="line"/>
      <point x="1252" y="0" type="line" smooth="yes" identifier="Pkl7cZ37MU"/>
      <point x="2449" y="0" type="line" smooth="yes" identifier="R4lklfJsHA"/>
      <point x="2644" y="660" type="line" smooth="yes" identifier="7g7f8Wu7K4"/>
      <point x="2644" y="1600" type="line" smooth="yes" identifier="RTOJW56qXy"/>
      <point x="1831" y="1600" type="line" identifier="JfSFAkWGZC"/>
      <point x="1831" y="649" type="line" smooth="yes" identifier="WWvGwSpq0g"/>
      <point x="1787" y="440" type="line" smooth="yes" identifier="oee4nqI8Wl"/>
      <point x="1758" y="440" type="line" identifier="Ljn2lpvpG8"/>
      <point x="1758" y="770" type="line"/>
      <point x="1758" y="1314" type="line" smooth="yes"/>
      <point x="946" y="1314" type="line"/>
      <point x="946" y="721" type="line"/>
      <point x="948" y="720" type="line"/>
      <point x="827" y="440" type="line" identifier="GlWB6PG54Z"/>
      <point x="850" y="440" type="line" identifier="iqeTRv7HXg"/>
    </contour>
  </outline>
</glyph>
<glyph name="Z" format="2">
  <advance width="1760"/>
  <unicode hex="005A"/>
  <outline>
    <contour>
      <point x="4" y="0" type="line"/>
      <point x="1743" y="0" type="line" identifier="pzdvPTirLJ"/>
      <point x="1743" y="635" type="line" identifier="91SxUS0iwG"/>
      <point x="930" y="635" type="line"/>
      <point x="930" y="440" type="line"/>
      <point x="817" y="440" type="line"/>
      <point x="817" y="574" type="line"/>
      <point x="1754" y="1047" type="line" identifier="yyb1NCCI5w"/>
      <point x="1754" y="1600" type="line" identifier="5FogYRSgkk"/>
      <point x="8" y="1600" type="line" identifier="svlFvrau4c"/>
      <point x="8" y="1025" type="line" identifier="LQ9fBsTy9K"/>
      <point x="736" y="1025" type="line"/>
      <point x="736" y="1160" type="line"/>
      <point x="942" y="1160" type="line"/>
      <point x="942" y="1048" type="line"/>
      <point x="4" y="577" type="line" identifier="teVKnpBcVb"/>
    </contour>
  </outline>
</glyph>
<glyph name="B.narrow" format="2">
  <advance width="1795"/>
  <outline>
    <contour>
      <point x="38" y="0" type="line" identifier="hvY9r8RmLr"/>
      <point x="1776" y="0" type="line" identifier="9QFpw7nfq7"/>
      <point x="1776" y="551" type="line" identifier="543PerILpr"/>
      <point x="1612" y="762" type="line" identifier="870ZhtaozS"/>
      <point x="1772" y="855" type="line" identifier="eGKH52Jgnk"/>
      <point x="1772" y="1600" type="line" identifier="FaP204GrdB"/>
      <point x="38" y="1600" type="line" identifier="JEev70GAj6"/>
    </contour>
    <contour>
      <point x="850" y="893" type="line" identifier="By7dfMihfe"/>
      <point x="850" y="1160" type="line" identifier="1p5hKrurVy"/>
      <point x="961" y="1160" type="line" identifier="Qby8aMtF2X"/>
      <point x="961" y="940" type="line" identifier="9lW01gQyU2"/>
    </contour>
    <contour>
      <point x="850" y="440" type="line" identifier="jaMSiLrCua"/>
      <point x="850" y="510" type="line" identifier="XSrxNd2axx"/>
      <point x="895" y="527" type="line" identifier="VyYlzRh5nq"/>
      <point x="962" y="431" type="line" identifier="lsRGatjQja"/>
      <point x="962" y="440" type="line" identifier="xhlDJ3CjD5"/>
    </contour>
  </outline>
</glyph>
<glyph name="C.wide" format="2">
  <advance width="1826"/>
  <outline>
    <contour>
      <point x="83" y="0" type="line" identifier="7lPhzTnk2Z"/>
      <point x="1821" y="0" type="line" identifier="qJVLZGnkwh"/>
      <point x="1821" y="440" type="line" identifier="Y750RHTvDj"/>
      <point x="895" y="440" type="line" identifier="L2LsGnXiZ2"/>
      <point x="895" y="936" type="line" identifier="sUWsr03vF4"/>
      <point x="946" y="1160" type="line" identifier="dbOUe6OhxL"/>
      <point x="1820" y="1160" type="line" identifier="5BjRbcud80"/>
      <point x="1820" y="1600" type="line" identifier="9eJelv8BOw"/>
      <point x="231" y="1600" type="line" identifier="lfZev3ICaC"/>
      <point x="83" y="983" type="line" identifier="V1EWIdPahq"/>
    </contour>
  </outline>
</glyph>
<glyph name="E.wide" format="2">
  <advance width="1350"/>
  <outline>
    <contour>
      <point x="38" y="0" type="line" identifier="fZynkQ4XHB"/>
      <point x="1346" y="0" type="line" identifier="FAQNpgUPxV"/>
      <point x="1346" y="422" type="line" identifier="5cgTYOhATF"/>
      <point x="850" y="422" type="line" identifier="bWs42DaCgU"/>
      <point x="850" y="599" type="line" identifier="VtD2aADJmn"/>
      <point x="1277" y="599" type="line" identifier="PpbsFdHAnS"/>
      <point x="1277" y="1002" type="line" identifier="8WuC5p8Ax5"/>
      <point x="850" y="1002" type="line" identifier="m39IWn9ntA"/>
      <point x="850" y="1189" type="line" identifier="gQ21I4SHQg"/>
      <point x="1345" y="1189" type="line" identifier="eqNb2VTwYs"/>
      <point x="1345" y="1600" type="line" identifier="qYRmo14Il5"/>
      <point x="38" y="1600" type="line" identifier="HmJIcnLWfC"/>
    </contour>
  </outline>
</glyph>
<glyph name="F.wide" format="2">
  <advance width="1577"/>
  <outline>
    <contour>
      <point x="38" y="0" type="line" identifier="oAgH2tA6DJ"/>
      <point x="850" y="0" type="line" identifier="zCZyMcW5ho"/>
      <point x="850" y="333" type="line" identifier="yHYqkMd7LI"/>
      <point x="1459" y="333" type="line" identifier="NmB7yyQuio"/>
      <point x="1459" y="772" type="line" identifier="wQk2C8zPHh"/>
      <point x="850" y="772" type="line" identifier="4cFHKQfHDt"/>
      <point x="850" y="1160" type="line" identifier="ZvzwyrcwpS"/>
      <point x="1573" y="1160" type="line" identifier="4E754ovOIe"/>
      <point x="1573" y="1600" type="line" identifier="NUrIjqOB7J"/>
      <point x="38" y="1600" type="line" identifier="TBAYuCfUFX"/>
    </contour>
  </outline>
</glyph>
<glyph name="G.wide" format="2">
  <advance width="1843"/>
  <outline>
    <contour>
      <point x="19" y="0" type="line" identifier="7lPhzTnk2Z"/>
      <point x="1755" y="0" type="line" identifier="qJVLZGnkwh"/>
      <point x="1755" y="897" type="line" identifier="uek1NNj7De"/>
      <point x="870" y="897" type="line" identifier="qcvimxjndX"/>
      <point x="870" y="543" type="line" identifier="EARaY3Su65"/>
      <point x="950" y="543" type="line" identifier="4m6dHLVhZq"/>
      <point x="950" y="440" type="line" identifier="Y750RHTvDj"/>
      <point x="831" y="440" type="line" identifier="L2LsGnXiZ2"/>
      <point x="831" y="1002" type="line" identifier="sUWsr03vF4"/>
      <point x="860" y="1160" type="line" identifier="dbOUe6OhxL"/>
      <point x="1756" y="1160" type="line" identifier="5BjRbcud80"/>
      <point x="1756" y="1600" type="line" identifier="9eJelv8BOw"/>
      <point x="110" y="1600" type="line" identifier="lfZev3ICaC"/>
      <point x="19" y="1021" type="line" identifier="V1EWIdPahq"/>
    </contour>
  </outline>
</glyph>
<glyph name="K.narrow" format="2">
  <advance width="1793"/>
  <outline>
    <contour>
      <point x="850" y="0" type="line"/>
      <point x="850" y="590" type="line"/>
      <point x="929" y="639" type="line"/>
      <point x="1001" y="0" type="line"/>
      <point x="1774" y="0" type="line"/>
      <point x="1612" y="810" type="line"/>
      <point x="1750" y="839" type="line"/>
      <point x="1750" y="1600" type="line"/>
      <point x="939" y="1600" type="line"/>
      <point x="939" y="1076" type="line"/>
      <point x="850" y="1030" type="line"/>
      <point x="850" y="1600" type="line"/>
      <point x="38" y="1600" type="line"/>
      <point x="38" y="0" type="line"/>
    </contour>
  </outline>
</glyph>
<glyph name="L.wide" format="2">
  <advance width="1812"/>
  <outline>
    <contour>
      <point x="64" y="0" type="line" identifier="XkJNfQlnnt"/>
      <point x="1790" y="0" type="line" identifier="82EXZEgt46"/>
      <point x="1790" y="440" type="line" identifier="cqpSxwFiM3"/>
      <point x="876" y="440" type="line" identifier="MbxRZRd8vz"/>
      <point x="876" y="1600" type="line" identifier="lYiaKSKITt"/>
      <point x="64" y="1600" type="line" identifier="XFf4mMUzYo"/>
    </contour>
  </outline>
</glyph>
<glyph name="N.narrow" format="2">
  <advance width="1796"/>
  <outline>
    <contour>
      <point x="38" y="0" type="line" smooth="yes"/>
      <point x="850" y="0" type="line"/>
      <point x="850" y="573" type="line"/>
      <point x="945" y="1065" type="line"/>
      <point x="946" y="1065" type="line"/>
      <point x="946" y="0" type="line" smooth="yes"/>
      <point x="1758" y="0" type="line" smooth="yes"/>
      <point x="1758" y="1600" type="line" smooth="yes"/>
      <point x="921" y="1600" type="line" smooth="yes"/>
      <point x="860" y="1374" type="line"/>
      <point x="844" y="1374" type="line"/>
      <point x="844" y="1600" type="line"/>
      <point x="38" y="1600" type="line"/>
    </contour>
  </outline>
</glyph>
<glyph name="N.wide" format="2">
  <advance width="2350"/>
  <outline>
    <contour>
      <point x="55" y="0" type="line" identifier="CkwYPPvJLv"/>
      <point x="867" y="0" type="line" identifier="oHTJsN7drZ"/>
      <point x="867" y="998" type="line" identifier="wfBbYd10Pm"/>
      <point x="878" y="998" type="line" identifier="MEnBDHq6zU"/>
      <point x="1497" y="0" type="line" identifier="3Nbopwznvn"/>
      <point x="2296" y="0" type="line" identifier="uKfuudIUvA"/>
      <point x="2296" y="1600" type="line" identifier="XRdLFXiM4t"/>
      <point x="1483" y="1600" type="line" identifier="MUSJPjCIXg"/>
      <point x="1483" y="655" type="line" identifier="VILP20cFmq"/>
      <point x="1485" y="655" type="line" identifier="z5b04GDwRN"/>
      <point x="897" y="1600" type="line" identifier="LL64NQ6WBE"/>
      <point x="55" y="1600" type="line" identifier="dzUaaP1sjt"/>
    </contour>
  </outline>
</glyph>
<glyph name="R.alt" format="2">
  <advance width="1969"/>
  <outline>
    <contour>
      <point x="931" y="925" type="line"/>
      <point x="931" y="1160" type="line"/>
      <point x="1041" y="1160" type="line"/>
      <point x="1041" y="925" type="line"/>
    </contour>
    <contour>
      <point x="1860" y="0" type="line"/>
      <point x="1717" y="601" type="line"/>
      <point x="1854" y="658" type="line"/>
      <point x="1854" y="1600" type="line"/>
      <point x="118" y="1600" type="line"/>
      <point x="118" y="0" type="line"/>
      <point x="931" y="0" type="line"/>
      <point x="931" y="485" type="line"/>
      <point x="1025" y="483" type="line"/>
      <point x="1123" y="0" type="line"/>
    </contour>
  </outline>
</glyph>
<glyph name="S.alt" format="2">
  <advance width="1800"/>
  <outline>
    <contour>
      <point x="84" y="0" type="line" identifier="09VlJ0BjUX"/>
      <point x="1714" y="0" type="line" identifier="EagWihqFM8"/>
      <point x="1714" y="991" type="line" identifier="KfNuQA7eZe"/>
      <point x="794" y="991" type="line" identifier="At364YZFEy"/>
      <point x="794" y="1048" type="line"/>
      <point x="830" y="1160" type="line"/>
      <point x="900" y="1160" type="line" identifier="3ZUkG35meB"/>
      <point x="900" y="1154" type="line" identifier="DTOJhFIl15"/>
      <point x="1714" y="1154" type="line" identifier="9KDcrfQ5Ui"/>
      <point x="1714" y="1600" type="line" identifier="SaF9ojRFrW"/>
      <point x="244" y="1600" type="line"/>
      <point x="82" y="1104" type="line"/>
      <point x="82" y="609" type="line" identifier="3sQ8t8BZ6b"/>
      <point x="900" y="609" type="line" identifier="yiV6OCBLHg"/>
      <point x="900" y="440" type="line" identifier="9kdl9SYsn8"/>
      <point x="871" y="440" type="line" identifier="yZDWuX8LLe"/>
      <point x="871" y="537" type="line" identifier="jYb9001DTm"/>
      <point x="84" y="537" type="line" identifier="ho4DrS0rdW"/>
    </contour>
  </outline>
</glyph>
<glyph name="S.wide" format="2">
  <advance width="1592"/>
  <outline>
    <contour>
      <point x="5" y="0" type="line" identifier="09VlJ0BjUX"/>
      <point x="1588" y="0" type="line" identifier="EagWihqFM8"/>
      <point x="1588" y="991" type="line" identifier="KfNuQA7eZe"/>
      <point x="724" y="991" type="line" identifier="At364YZFEy"/>
      <point x="724" y="1048" type="line"/>
      <point x="760" y="1160" type="line"/>
      <point x="1588" y="1160" type="line" identifier="3ZUkG35meB"/>
      <point x="1588" y="1600" type="line" identifier="SaF9ojRFrW"/>
      <point x="174" y="1600" type="line"/>
      <point x="12" y="1104" type="line"/>
      <point x="12" y="609" type="line" identifier="3sQ8t8BZ6b"/>
      <point x="774" y="609" type="line" identifier="yiV6OCBLHg"/>
      <point x="774" y="440" type="line" identifier="9kdl9SYsn8"/>
      <point x="5" y="440" type="line" identifier="yZDWuX8LLe"/>
    </contour>
  </outline>
</glyph>
<glyph name="Y.alt" format="2">
  <advance width="1758"/>
  <outline>
    <contour>
      <point x="36" y="440" type="line"/>
      <point x="36" y="0" type="line"/>
      <point x="1720" y="0" type="line" identifier="oOtn61SmRY"/>
      <point x="1720" y="1600" type="line" identifier="8OglXgblhr"/>
      <point x="908" y="1600" type="line" identifier="db0bPhBdaU"/>
      <point x="908" y="1020" type="line" identifier="MTAeavIVWY"/>
      <point x="813" y="1020" type="line" identifier="lggLiivmLt"/>
      <point x="813" y="1600" type="line" identifier="UPaHY3UudR"/>
      <point x="1" y="1600" type="line" identifier="ZnCDQVdtyD"/>
      <point x="1" y="580" type="line" identifier="uqAJBjDIOT"/>
      <point x="908" y="580" type="line" identifier="7JgTtdb0jg"/>
      <point x="908" y="440" type="line"/>
    </contour>
  </outline>
</glyph>
<glyph name="Z.wide" format="2">
  <advance width="1760"/>
  <outline>
    <contour>
      <point x="4" y="0" type="line"/>
      <point x="1743" y="0" type="line" identifier="pzdvPTirLJ"/>
      <point x="1743" y="440" type="line"/>
      <point x="817" y="440" type="line"/>
      <point x="817" y="574" type="line"/>
      <point x="1754" y="1248" type="line" identifier="yyb1NCCI5w"/>
      <point x="1754" y="1600" type="line" identifier="5FogYRSgkk"/>
      <point x="8" y="1600" type="line" identifier="svlFvrau4c"/>
      <point x="8" y="1160" type="line"/>
      <point x="938" y="1160" type="line"/>
      <point x="938" y="1231" type="line"/>
      <point x="4" y="577" type="line" identifier="teVKnpBcVb"/>
    </contour>
  </outline>
</glyph>
<glyph name="five.wide" format="2">
  <advance width="1740"/>
  <outline>
    <contour>
      <point x="6" y="0" type="line" identifier="09VlJ0BjUX"/>
      <point x="1736" y="0" type="line" identifier="EagWihqFM8"/>
      <point x="1736" y="969" type="line" identifier="KfNuQA7eZe"/>
      <point x="817" y="1022" type="line" identifier="At364YZFEy"/>
      <point x="817" y="1160" type="line" identifier="BcuLfvaQKC"/>
      <point x="1736" y="1160" type="line" identifier="3ZUkG35meB"/>
      <point x="1736" y="1600" type="line" identifier="SaF9ojRFrW"/>
      <point x="4" y="1600" type="line" identifier="F4sQEYelA8"/>
      <point x="4" y="659" type="line" identifier="3sQ8t8BZ6b"/>
      <point x="923" y="605" type="line" identifier="yiV6OCBLHg"/>
      <point x="923" y="440" type="line" identifier="9kdl9SYsn8"/>
      <point x="6" y="440" type="line" identifier="yZDWuX8LLe"/>
    </contour>
  </outline>
</glyph>
<glyph name="six.wide" format="2">
  <advance width="1935"/>
  <outline>
    <contour>
      <point x="96" y="0" type="line" identifier="uiw6aBUf4P"/>
      <point x="1836" y="0" type="line" identifier="jtYkxiUX6G"/>
      <point x="1836" y="925" type="line" identifier="2G5L37c87I"/>
      <point x="909" y="925" type="line"/>
      <point x="909" y="1058" type="line"/>
      <point x="926" y="1160" type="line"/>
      <point x="1834" y="1160" type="line"/>
      <point x="1834" y="1600" type="line" identifier="oGvEEuxnYv"/>
      <point x="144" y="1600" type="line" identifier="xR3pEHbMJx"/>
      <point x="96" y="1059" type="line" identifier="KnMArb0tv8"/>
    </contour>
    <contour>
      <point x="1023" y="561" type="line"/>
      <point x="1023" y="440" type="line"/>
      <point x="909" y="440" type="line"/>
      <point x="909" y="561" type="line"/>
    </contour>
  </outline>
</glyph>
<glyph name="three.wide" format="2">
  <advance width="1720"/>
  <outline>
    <contour>
      <point x="21" y="0" type="line" identifier="O9abUc1nmN"/>
      <point x="1666" y="0" type="line" identifier="kMJYMTfXCq"/>
      <point x="1666" y="907" type="line" identifier="su2XmdS8e8"/>
      <point x="1514" y="907" type="line" identifier="JQaOzDQqlF"/>
      <point x="1514" y="910" type="line"/>
      <point x="1609" y="973" type="line" identifier="S91TzLL02W"/>
      <point x="1609" y="1600" type="line" identifier="xg8x2Ki40p"/>
      <point x="24" y="1600" type="line" identifier="pE1XSRiy68"/>
      <point x="24" y="1151" type="line" identifier="7ogBYufWpl"/>
      <point x="797" y="1151" type="line" identifier="RHLvSX2Jv6"/>
      <point x="797" y="973" type="line" identifier="YUjTrmoWd9"/>
      <point x="709" y="911" type="line"/>
      <point x="709" y="907" type="line" identifier="iic1IBkDqp"/>
      <point x="129" y="907" type="line" identifier="lRLJEhXMlO"/>
      <point x="129" y="639" type="line" identifier="8aKgEELrVU"/>
      <point x="853" y="639" type="line" identifier="Dm8zjmbhNr"/>
      <point x="853" y="440" type="line" identifier="xv9CFHiFgB"/>
      <point x="21" y="440" type="line" identifier="YajKQV3MHP"/>
    </contour>
  </outline>
</glyph>
